#!OML:ASF G:\JayActor3\Patient Classification 1\Patient 1\Session 6\male.ASF
:FULLY-SPECIFIED
:DEGREES
1849
root -1.92395 15.6243 11.85 -169.008 19.0884 179.028
lowerback 29.7846 -5.15735 0.560375
upperback 8.86984 -4.40718 1.80709
thorax -6.22928 -1.37 3.09806
lowerneck 13.379 2.20572 4.09437
upperneck -20.8158 4.21291 -1.18503
head -8.58858 2.01106 -1.58608
rclavicle -5.33488e-014 6.5102e-015
rhumerus -30.0639 9.83239 -80.6624
rradius 125.125
rwrist 11.7036
rhand 14.1423 -19.5057
rfingers 7.12502
rthumb 39.0437 -45.0132
lclavicle -5.33488e-014 6.5102e-015
lhumerus -35.9486 -9.40333 83.9897
lradius 125.879
lwrist 6.36591
lhand 1.04588 38.5456
lfingers 7.12502
lthumb 26.5918 66.6985
rfemur -47.3849 14.87 10.0722
rtibia 56.7734
rfoot -25.353 -4.26643
rtoes -29.5499
lfemur -37.0327 27.3411 -10.5656
ltibia 47.4779
lfoot -11.2302 8.85698
ltoes -16.3229
1850
root -1.9776 15.6375 11.8372 -168.907 19.7889 179.115
lowerback 29.7253 -5.2074 0.578227
upperback 8.85343 -4.48794 1.81047
thorax -6.21744 -1.41777 3.11665
lowerneck 13.355 2.05332 4.01959
upperneck -20.803 4.03603 -0.930047
head -8.59364 1.90406 -1.46796
rclavicle -3.762e-014 2.04251e-014
rhumerus -30.1062 9.76969 -80.6685
rradius 125.158
rwrist 11.7718
rhand 14.1525 -19.5531
rfingers 7.12502
rthumb 39.0533 -45.0578
lclavicle -3.762e-014 2.04251e-014
lhumerus -35.8381 -9.42771 83.862
lradius 125.823
lwrist 6.38837
lhand 0.999611 38.4996
lfingers 7.12502
lthumb 26.5475 66.6593
rfemur -47.4538 15.0637 9.8693
rtibia 56.3887
rfoot -25.3151 -3.75958
rtoes -29.633
lfemur -36.8045 27.3943 -10.6222
ltibia 47.4446
lfoot -11.6143 9.38497
ltoes -16.3009
1851
root -2.03087 15.6499 11.8231 -168.808 20.5078 179.214
lowerback 29.6528 -5.2236 0.546145
upperback 8.85116 -4.53337 1.8541
thorax -6.17711 -1.44856 3.19483
lowerneck 13.3247 1.89317 3.93164
upperneck -20.7984 3.83663 -0.711857
head -8.5994 1.79121 -1.35749
rclavicle 2.07233e-014 1.59525e-014
rhumerus -30.1249 9.7023 -80.6044
rradius 125.186
rwrist 11.8236
rhand 14.2326 -19.5454
rfingers 7.12502
rthumb 39.1289 -45.0283
lclavicle 2.07233e-014 1.59525e-014
lhumerus -35.7052 -9.43533 83.8067
lradius 125.751
lwrist 6.38656
lhand 1.03187 38.4231
lfingers 7.12502
lthumb 26.5784 66.5781
rfemur -47.5209 15.2596 9.68999
rtibia 56.0056
rfoot -25.2593 -3.36365
rtoes -29.9555
lfemur -36.5435 27.4949 -10.662
ltibia 47.3907
lfoot -12.008 9.8753
ltoes -16.3532
1852
root -2.0843 15.6619 11.8077 -168.706 21.2421 179.317
lowerback 29.5602 -5.2102 0.457929
upperback 8.86138 -4.55124 1.9408
thorax -6.10564 -1.46657 3.34149
lowerneck 13.2894 1.73059 3.82417
upperneck -20.8029 3.61834 -0.540061
head -8.60607 1.67561 -1.25724
rclavicle 2.5345e-015 1.49089e-015
rhumerus -30.1134 9.64105 -80.4629
rradius 125.205
rwrist 11.873
rhand 14.35 -19.4772
rfingers 7.12502
rthumb 39.2394 -44.9282
lclavicle 2.5345e-015 1.49089e-015
lhumerus -35.5517 -9.41061 83.8371
lradius 125.665
lwrist 6.35618
lhand 1.12561 38.3672
lfingers 7.12502
lthumb 26.6681 66.5086
rfemur -47.5951 15.4482 9.51726
rtibia 55.6284
rfoot -25.1993 -3.01108
rtoes -30.374
lfemur -36.2505 27.6169 -10.6957
ltibia 47.3048
lfoot -12.4155 10.3409
ltoes -16.4363
1853
root -2.13832 15.673 11.7909 -168.602 21.9833 179.425
lowerback 29.4672 -5.20089 0.392473
upperback 8.86771 -4.56985 2.01514
thorax -6.04137 -1.48502 3.46177
lowerneck 13.253 1.56593 3.73629
upperneck -20.7973 3.39707 -0.383937
head -8.60784 1.55869 -1.16487
rclavicle -1.52567e-014 6.33129e-014
rhumerus -30.1073 9.56997 -80.3347
rradius 125.212
rwrist 11.9452
rhand 14.4901 -19.3442
rfingers 7.12502
rthumb 39.3714 -44.7568
lclavicle -1.52567e-014 6.33129e-014
lhumerus -35.4199 -9.39068 83.8641
lradius 125.587
lwrist 6.30966
lhand 1.26715 38.3262
lfingers 7.12502
lthumb 26.8035 66.4469
rfemur -47.6763 15.6095 9.36092
rtibia 55.2596
rfoot -25.1295 -2.73661
rtoes -30.9938
lfemur -35.9341 27.7572 -10.7292
ltibia 47.1838
lfoot -12.816 10.7944
ltoes -16.6245
1854
root -2.19249 15.6833 11.7729 -168.504 22.7418 179.531
lowerback 29.3814 -5.19643 0.328552
upperback 8.87381 -4.59525 2.07666
thorax -5.98151 -1.50661 3.56953
lowerneck 13.2118 1.41199 3.6398
upperneck -20.785 3.18732 -0.23137
head -8.60557 1.44836 -1.07332
rclavicle 3.07122e-014 3.4837e-014
rhumerus -30.0937 9.51886 -80.2184
rradius 125.207
rwrist 12.0202
rhand 14.6114 -19.1921
rfingers 7.12502
rthumb 39.4857 -44.5712
lclavicle 3.07122e-014 3.4837e-014
lhumerus -35.3258 -9.35102 83.8748
lradius 125.538
lwrist 6.26227
lhand 1.4148 38.3073
lfingers 7.12502
lthumb 26.9448 66.4062
rfemur -47.7581 15.7668 9.20248
rtibia 54.8998
rfoot -25.0664 -2.42259
rtoes -31.57
lfemur -35.579 27.923 -10.7666
ltibia 47.024
lfoot -13.2181 11.2411
ltoes -16.8541
1855
root -2.24745 15.6927 11.7536 -168.409 23.5074 179.628
lowerback 29.3129 -5.2184 0.300613
upperback 8.86657 -4.65011 2.09792
thorax -5.94991 -1.54223 3.62355
lowerneck 13.1758 1.2752 3.55404
upperneck -20.7599 3.00531 -0.0704268
head -8.59881 1.34951 -0.983665
rclavicle -1.22253e-014 -5.18828e-014
rhumerus -30.0969 9.4957 -80.164
rradius 125.194
rwrist 12.1199
rhand 14.7106 -19.0208
rfingers 7.12502
rthumb 39.5792 -44.3724
lclavicle -1.22253e-014 -5.18828e-014
lhumerus -35.3041 -9.29767 83.8214
lradius 125.539
lwrist 6.23203
lhand 1.53306 38.3032
lfingers 7.12502
lthumb 27.0579 66.3846
rfemur -47.8445 15.9035 9.03078
rtibia 54.5508
rfoot -25.0122 -1.98057
rtoes -31.9585
lfemur -35.2052 28.1233 -10.8291
ltibia 46.8313
lfoot -13.6181 11.6805
ltoes -17.1027
1856
root -2.3024 15.7008 11.7332 -168.324 24.2843 179.721
lowerback 29.2688 -5.26028 0.303371
upperback 8.84988 -4.72619 2.07977
thorax -5.94557 -1.58744 3.62536
lowerneck 13.1452 1.15277 3.48232
upperneck -20.7273 2.84974 0.104332
head -8.58958 1.26081 -0.894637
rclavicle -3.94588e-014 7.36497e-014
rhumerus -30.1217 9.51561 -80.1813
rradius 125.185
rwrist 12.1664
rhand 14.6821 -18.935
rfingers 7.12502
rthumb 39.5524 -44.2946
lclavicle -3.94588e-014 7.36497e-014
lhumerus -35.3352 -9.22829 83.7154
lradius 125.568
lwrist 6.21479
lhand 1.60992 38.2957
lfingers 7.12502
lthumb 27.1315 66.3657
rfemur -47.9283 16.0392 8.85059
rtibia 54.2138
rfoot -24.9652 -1.39592
rtoes -32.1184
lfemur -34.8128 28.3846 -10.9157
ltibia 46.6118
lfoot -13.9981 12.1323
ltoes -17.4319
1857
root -2.35714 15.7075 11.7119 -168.252 25.0691 179.807
lowerback 29.2581 -5.31639 0.289309
upperback 8.82103 -4.82562 2.05789
thorax -5.96806 -1.6437 3.64311
lowerneck 13.1313 1.05842 3.36678
upperneck -20.6961 2.72583 0.288722
head -8.58351 1.18923 -0.798815
rclavicle 8.64713e-015 2.88238e-015
rhumerus -30.1566 9.62345 -80.2212
rradius 125.189
rwrist 12.1469
rhand 14.5789 -18.938
rfingers 7.12502
rthumb 39.4551 -44.3261
lclavicle 8.64713e-015 2.88238e-015
lhumerus -35.4419 -9.10668 83.6044
lradius 125.639
lwrist 6.20377
lhand 1.60808 38.2979
lfingers 7.12502
lthumb 27.1297 66.3681
rfemur -48.0097 16.1785 8.65965
rtibia 53.8908
rfoot -24.9209 -0.674584
rtoes -32.0422
lfemur -34.4095 28.7163 -11.0298
ltibia 46.3814
lfoot -14.3933 12.5675
ltoes -17.6681
1858
root -2.4108 15.7133 11.6901 -168.194 25.8639 179.889
lowerback 29.2694 -5.37756 0.235919
upperback 8.79237 -4.94025 2.044
thorax -5.99524 -1.70698 3.69855
lowerneck 13.1288 0.990734 3.19721
upperneck -20.6769 2.63137 0.488237
head -8.5835 1.13416 -0.692479
rclavicle 2.42517e-014 -1.21259e-014
rhumerus -30.1837 9.81242 -80.2719
rradius 125.206
rwrist 12.0592
rhand 14.4056 -19.0171
rfingers 7.12502
rthumb 39.2919 -44.4529
lclavicle 2.42517e-014 -1.21259e-014
lhumerus -35.5711 -8.91514 83.5134
lradius 125.711
lwrist 6.19031
lhand 1.553 38.3012
lfingers 7.12502
lthumb 27.077 66.3796
rfemur -48.0838 16.3362 8.46341
rtibia 53.5795
rfoot -24.8726 0.138062
rtoes -31.7583
lfemur -33.9994 29.1013 -11.1631
ltibia 46.1539
lfoot -14.7929 13.0292
ltoes -17.875
1859
root -2.46506 15.7182 11.6676 -168.134 26.6453 179.967
lowerback 29.2804 -5.4278 0.156464
upperback 8.76402 -5.04393 2.0634
thorax -6.01653 -1.76506 3.80205
lowerneck 13.1328 0.923086 2.98433
upperneck -20.6795 2.52818 0.686141
head -8.59212 1.07842 -0.578791
rclavicle -1.96797e-014 -3.69739e-014
rhumerus -30.2022 10.0173 -80.271
rradius 125.241
rwrist 11.9163
rhand 14.2019 -19.1662
rfingers 7.12502
rthumb 39.0999 -44.6575
lclavicle -1.96797e-014 -3.69739e-014
lhumerus -35.6926 -8.71685 83.4982
lradius 125.767
lwrist 6.16797
lhand 1.45183 38.317
lfingers 7.12502
lthumb 26.9802 66.4105
rfemur -48.1643 16.4724 8.26637
rtibia 53.2769
rfoot -24.8137 0.908124
rtoes -31.5151
lfemur -33.6297 29.5238 -11.3319
ltibia 45.9546
lfoot -15.2073 13.4838
ltoes -17.9401
1860
root -2.51856 15.7229 11.6451 -168.069 27.4251 180.043
lowerback 29.272 -5.44614 0.00485402
upperback 8.75154 -5.11949 2.13615
thorax -5.99965 -1.81016 3.9941
lowerneck 13.1359 0.851819 2.73408
upperneck -20.718 2.40913 0.863929
head -8.61236 1.0203 -0.464156
rclavicle -4.73108e-014 -7.15625e-015
rhumerus -30.1809 10.2235 -80.1854
rradius 125.283
rwrist 11.7505
rhand 14.0125 -19.3203
rfingers 7.12502
rthumb 38.9213 -44.8628
lclavicle -4.73108e-014 -7.15625e-015
lhumerus -35.7624 -8.50311 83.5771
lradius 125.791
lwrist 6.12801
lhand 1.33081 38.3403
lfingers 7.12502
lthumb 26.8644 66.4516
rfemur -48.251 16.6031 8.08049
rtibia 52.9757
rfoot -24.7488 1.50859
rtoes -31.5513
lfemur -33.2971 29.9436 -11.512
ltibia 45.7994
lfoot -15.6542 13.9327
ltoes -17.7482
1861
root -2.57298 15.7275 11.6222 -167.977 28.1756 180.124
lowerback 29.244 -5.46912 -0.0936316
upperback 8.72931 -5.18958 2.19776
thorax -5.99067 -1.85293 4.14093
lowerneck 13.1447 0.760375 2.52877
upperneck -20.7648 2.27401 1.04507
head -8.63575 0.950921 -0.354055
rclavicle -6.08281e-014 -6.16232e-015
rhumerus -30.1833 10.3564 -80.1119
rradius 125.331
rwrist 11.6259
rhand 13.8805 -19.4181
rfingers 7.12502
rthumb 38.7968 -44.996
lclavicle -6.08281e-014 -6.16232e-015
lhumerus -35.8122 -8.35837 83.6543
lradius 125.793
lwrist 6.09979
lhand 1.18152 38.3844
lfingers 7.12502
lthumb 26.7216 66.5176
rfemur -48.3585 16.6962 7.90592
rtibia 52.6699
rfoot -24.6754 1.94689
rtoes -31.8868
lfemur -33.0583 30.3351 -11.7152
ltibia 45.7097
lfoot -16.0904 14.3698
ltoes -17.4013
